<svg xmlns="http://www.w3.org/2000/svg" width="20" height="20" viewBox="0 0 20 20" fill="none">
    <path d="M15 1H5C3.93913 1 2.92172 1.42143 2.17157 2.17157C1.42143 2.92172 1 3.93913 1 5V15C1 16.0609 1.42143 17.0783 2.17157 17.8284C2.92172 18.5786 3.93913 19 5 19H15C16.0609 19 17.0783 18.5786 17.8284 17.8284C18.5786 17.0783 19 16.0609 19 15V5C19 3.93913 18.5786 2.92172 17.8284 2.17157C17.0783 1.42143 16.0609 1 15 1Z" stroke="white" stroke-width="1.5" stroke-linejoin="round"/>
    <path d="M10 14C11.0609 14 12.0783 13.5786 12.8284 12.8284C13.5786 12.0783 14 11.0609 14 10C14 8.93913 13.5786 7.92172 12.8284 7.17157C12.0783 6.42143 11.0609 6 10 6C8.93913 6 7.92172 6.42143 7.17157 7.17157C6.42143 7.92172 6 8.93913 6 10C6 11.0609 6.42143 12.0783 7.17157 12.8284C7.92172 13.5786 8.93913 14 10 14V14Z" stroke="white" stroke-width="1.5" stroke-linejoin="round"/>
    <path d="M15.5 5.5C15.7652 5.5 16.0196 5.39464 16.2071 5.20711C16.3946 5.01957 16.5 4.76522 16.5 4.5C16.5 4.23478 16.3946 3.98043 16.2071 3.79289C16.0196 3.60536 15.7652 3.5 15.5 3.5C15.2348 3.5 14.9804 3.60536 14.7929 3.79289C14.6054 3.98043 14.5 4.23478 14.5 4.5C14.5 4.76522 14.6054 5.01957 14.7929 5.20711C14.9804 5.39464 15.2348 5.5 15.5 5.5Z" fill="white"/>
</svg>
